<svg xmlns="http://www.w3.org/2000/svg" viewBox="0 0 701 224" width="701" height="224">
<g fill-rule="evenodd" stroke="none">
<path fill="#2C583D" d="M 583 196 L 583 198 L 585 200 L 593 213 L 600 221 L 602 222 L 603 221 L 630 221 L 630 219 L 620 205 L 619 202 L 613 195 L 606 184 L 603 184 L 598 188 L 591 191 L 589 193 Z M 544 100 L 539 105 L 531 119 L 532 125 L 539 134 L 546 146 L 555 157 L 559 157 L 560 156 L 562 156 L 563 155 L 565 155 L 566 154 L 573 152 L 578 148 L 578 146 L 576 142 L 574 140 L 571 134 L 566 128 L 558 115 L 555 112 L 548 100 Z M 510 46 L 508 46 L 508 47 L 500 58 L 499 61 L 497 63 L 471 103 L 461 90 L 460 87 L 455 81 L 455 80 L 447 69 L 446 66 L 439 57 L 438 54 L 436 52 L 434 48 L 431 45 L 429 46 L 428 49 L 419 62 L 412 75 L 401 91 L 396 101 L 379 126 L 378 130 L 375 134 L 374 137 L 372 139 L 371 142 L 365 149 L 362 155 L 358 160 L 356 165 L 353 168 L 351 172 L 349 171 L 346 165 L 344 163 L 343 160 L 338 153 L 309 153 L 309 157 L 312 160 L 316 168 L 325 181 L 325 183 L 331 191 L 332 194 L 338 202 L 339 205 L 341 207 L 349 220 L 352 220 L 355 216 L 356 213 L 358 211 L 361 205 L 374 186 L 376 181 L 378 179 L 379 176 L 388 163 L 389 160 L 392 157 L 392 155 L 395 149 L 397 147 L 401 140 L 405 136 L 406 133 L 410 128 L 412 123 L 415 120 L 419 112 L 421 110 L 424 104 L 431 94 L 433 95 L 437 102 L 440 105 L 443 111 L 445 113 L 446 116 L 451 122 L 455 129 L 458 132 L 458 133 L 464 141 L 468 149 L 471 151 L 472 151 L 472 150 L 476 145 L 477 142 L 487 128 L 488 125 L 495 116 L 499 108 L 502 105 L 503 102 L 510 93 L 513 96 L 520 107 L 523 110 L 525 109 L 531 97 L 537 90 L 537 86 L 527 70 L 524 67 L 523 64 L 520 61 L 520 60 Z M 277 54 L 274 54 L 272 56 L 260 75 L 257 78 L 256 81 L 250 88 L 249 91 L 246 94 L 238 107 L 235 110 L 234 113 L 230 117 L 176 117 L 175 116 L 177 112 L 184 103 L 188 96 L 191 93 L 192 90 L 195 87 L 199 80 L 202 77 L 206 70 L 209 67 L 209 66 L 215 58 L 216 55 L 220 51 L 223 46 L 223 44 L 192 44 L 192 45 L 184 55 L 180 62 L 176 66 L 175 69 L 172 72 L 162 88 L 159 91 L 150 105 L 147 108 L 146 111 L 143 114 L 139 121 L 136 124 L 132 131 L 126 138 L 125 141 L 122 144 L 118 151 L 115 154 L 111 161 L 108 164 L 104 171 L 94 184 L 86 197 L 78 207 L 70 220 L 72 221 L 89 221 L 90 222 L 91 221 L 101 221 L 105 217 L 105 216 L 111 208 L 112 205 L 117 199 L 118 196 L 126 186 L 127 183 L 133 176 L 135 172 L 138 169 L 146 156 L 149 153 L 149 152 L 152 149 L 155 144 L 211 143 L 212 145 L 209 148 L 207 152 L 199 162 L 198 165 L 195 168 L 194 171 L 192 173 L 188 180 L 185 183 L 185 184 L 182 187 L 175 198 L 172 201 L 171 204 L 166 210 L 165 213 L 161 218 L 161 221 L 191 221 L 195 216 L 203 203 L 207 199 L 208 196 L 215 187 L 219 180 L 222 177 L 228 167 L 231 164 L 231 163 L 235 158 L 236 155 L 242 148 L 248 138 L 259 124 L 260 121 L 273 102 L 274 102 L 277 105 L 277 106 L 281 111 L 282 114 L 284 116 L 290 115 L 291 114 L 294 114 L 295 113 L 304 112 L 305 111 L 308 111 L 309 110 L 309 107 L 307 103 L 305 101 L 304 98 L 295 85 L 294 82 L 290 77 L 287 70 L 283 65 L 282 62 L 280 60 Z "/>
<path fill="#4392B3" d="M 389 181 L 389 183 L 393 185 L 395 185 L 402 189 L 404 189 L 406 191 L 411 193 L 413 195 L 443 210 L 445 210 L 448 212 L 450 212 L 451 213 L 453 213 L 454 214 L 456 214 L 463 217 L 466 217 L 467 218 L 470 218 L 471 219 L 475 219 L 476 220 L 482 220 L 483 221 L 492 221 L 493 222 L 509 221 L 510 220 L 514 220 L 515 219 L 518 219 L 519 218 L 525 217 L 539 210 L 539 209 L 534 209 L 533 210 L 524 210 L 523 211 L 519 211 L 518 210 L 502 210 L 501 209 L 494 209 L 493 208 L 484 207 L 480 205 L 477 205 L 473 203 L 470 203 L 463 200 L 460 200 L 457 198 L 449 196 L 440 191 L 435 190 L 430 187 L 428 187 L 422 184 L 420 184 L 417 182 L 403 178 L 400 176 L 394 175 Z M 376 128 L 370 127 L 369 126 L 366 126 L 365 125 L 361 125 L 360 124 L 351 123 L 350 122 L 343 122 L 342 121 L 312 121 L 311 122 L 306 122 L 305 123 L 302 123 L 301 124 L 298 124 L 297 125 L 294 125 L 293 126 L 285 128 L 269 136 L 254 150 L 248 160 L 248 162 L 245 169 L 245 172 L 244 173 L 244 189 L 245 190 L 246 196 L 250 204 L 252 206 L 252 207 L 261 215 L 269 219 L 272 219 L 276 221 L 292 221 L 293 220 L 297 220 L 298 219 L 300 219 L 306 216 L 308 214 L 312 212 L 317 207 L 318 207 L 318 206 L 323 200 L 323 197 L 324 196 L 323 195 L 321 195 L 317 199 L 316 199 L 308 205 L 301 208 L 298 208 L 297 209 L 283 209 L 282 208 L 279 208 L 272 205 L 266 200 L 266 199 L 263 196 L 260 189 L 260 177 L 261 176 L 261 173 L 262 172 L 263 168 L 265 166 L 267 162 L 273 156 L 274 156 L 280 151 L 288 147 L 290 147 L 294 145 L 297 145 L 298 144 L 301 144 L 302 143 L 306 143 L 307 142 L 314 142 L 315 141 L 335 141 L 336 142 L 343 142 L 344 143 L 348 143 L 349 144 L 353 144 L 354 145 L 365 147 L 368 144 L 371 138 L 373 136 L 376 130 Z M 626 116 L 625 115 L 625 111 L 624 110 L 623 104 L 618 94 L 616 92 L 616 91 L 605 81 L 595 76 L 589 75 L 588 74 L 583 74 L 582 73 L 573 73 L 572 74 L 567 74 L 566 75 L 562 75 L 559 77 L 554 78 L 552 80 L 542 86 L 535 94 L 533 98 L 530 101 L 527 109 L 524 112 L 525 113 L 525 115 L 524 116 L 524 120 L 523 121 L 523 133 L 524 134 L 524 138 L 525 139 L 525 141 L 526 141 L 526 137 L 527 136 L 527 129 L 528 128 L 528 125 L 530 122 L 530 118 L 532 115 L 532 113 L 534 111 L 535 108 L 538 105 L 538 104 L 543 99 L 548 97 L 551 94 L 557 91 L 560 91 L 561 90 L 564 90 L 565 89 L 582 89 L 583 90 L 585 90 L 592 93 L 601 102 L 605 109 L 605 112 L 606 113 L 606 120 L 607 121 L 607 125 L 606 126 L 605 134 L 599 145 L 588 156 L 572 165 L 570 165 L 567 167 L 561 168 L 560 169 L 550 170 L 549 171 L 544 171 L 543 172 L 516 172 L 515 171 L 503 170 L 502 169 L 499 169 L 498 168 L 494 168 L 490 166 L 486 166 L 479 163 L 476 163 L 475 162 L 464 159 L 461 157 L 456 156 L 448 152 L 445 152 L 442 150 L 437 149 L 429 145 L 424 144 L 421 142 L 419 142 L 418 141 L 416 141 L 415 140 L 413 140 L 406 137 L 402 141 L 394 155 L 398 157 L 400 157 L 405 160 L 407 160 L 410 162 L 412 162 L 418 165 L 423 166 L 426 168 L 431 169 L 434 171 L 436 171 L 439 173 L 441 173 L 446 176 L 451 177 L 454 179 L 456 179 L 457 180 L 459 180 L 460 181 L 462 181 L 463 182 L 465 182 L 472 185 L 475 185 L 482 188 L 485 188 L 486 189 L 490 189 L 491 190 L 495 190 L 496 191 L 500 191 L 501 192 L 506 192 L 507 193 L 514 193 L 515 194 L 544 194 L 545 193 L 556 192 L 557 191 L 560 191 L 561 190 L 564 190 L 565 189 L 568 189 L 569 188 L 574 187 L 589 180 L 591 178 L 594 177 L 601 171 L 602 171 L 613 160 L 613 159 L 617 154 L 618 151 L 620 149 L 625 137 L 625 133 L 626 132 Z "/>
<path fill="#FCC535" d="M 311 12 L 309 14 L 305 16 L 301 20 L 300 20 L 292 28 L 292 29 L 288 33 L 288 34 L 284 39 L 284 43 L 286 45 L 288 50 L 290 52 L 293 58 L 297 63 L 298 66 L 302 71 L 303 74 L 310 84 L 311 87 L 317 95 L 321 103 L 326 109 L 341 109 L 342 110 L 357 111 L 358 112 L 362 112 L 363 113 L 366 113 L 367 114 L 370 114 L 372 115 L 372 114 L 375 111 L 376 108 L 380 103 L 381 100 L 385 95 L 386 92 L 390 87 L 391 84 L 397 76 L 398 73 L 400 71 L 407 58 L 411 53 L 415 45 L 418 42 L 417 39 L 415 37 L 413 33 L 409 29 L 409 28 L 399 18 L 395 16 L 392 13 L 380 7 L 378 7 L 371 4 L 363 3 L 362 2 L 353 2 L 352 1 L 348 1 L 347 2 L 339 2 L 338 3 L 334 3 L 333 4 L 330 4 L 329 5 L 321 7 Z "/>
</g>
</svg>